<?xml version="1.0" encoding="utf-8"?>
<!-- Generator: Adobe Illustrator 23.0.6, SVG Export Plug-In . SVG Version: 6.00 Build 0)  -->
<svg version="1.1" id="Layer_1" xmlns="http://www.w3.org/2000/svg" xmlns:xlink="http://www.w3.org/1999/xlink" x="0px" y="0px"
	 viewBox="0 0 64 64" style="enable-background:new 0 0 64 64;" xml:space="preserve">
<style type="text/css">
	.st0{fill:#C2CDE7;}
	.st1{fill:#CED8ED;}
	.st2{fill:#B5C4E0;}
	.st3{fill:#F9DD8F;}
	.st4{fill:#FAEFDE;}
	.st5{fill:#611861;}
</style>
<title>Dusk Part 3</title>
<path class="st0" d="M1,16v29c0,5.5,11.2,10,25,10s25-4.5,25-10V16H1z"/>
<path class="st1" d="M8,16H1v29c0,2.7,2.7,5.1,7,6.9V16z"/>
<path class="st2" d="M36,16v38.2c8.8-1.5,15-5.1,15-9.2V16H36z"/>
<ellipse class="st1" cx="26" cy="15" rx="25" ry="10"/>
<path class="st3" d="M63,16.2l-3.8,1c-0.4,0.1-0.7,0.4-0.8,0.7c-0.2,0.6-0.4,1.1-0.7,1.6c-0.2,0.3-0.2,0.7,0,1.1l2,3.4L58,25.8
	l-3.4-2c-0.3-0.2-0.7-0.2-1.1,0c-0.5,0.3-1.1,0.5-1.7,0.7c-0.4,0.1-0.6,0.4-0.7,0.8l-1,3.8h-2.4l-1-3.8c-0.1-0.4-0.4-0.7-0.7-0.8
	c-0.6-0.2-1.1-0.4-1.7-0.7c-0.3-0.2-0.7-0.2-1.1,0l-3.4,2L38.2,24l2-3.4c0.2-0.3,0.2-0.7,0-1.1c-0.3-0.5-0.5-1.1-0.7-1.6
	c-0.1-0.4-0.4-0.6-0.8-0.7l-3.8-1v-2.4l3.8-1c0.4-0.1,0.7-0.4,0.8-0.7c0.2-0.6,0.4-1.1,0.7-1.6c0.2-0.3,0.2-0.7,0-1.1l-2-3.3L40,4.2
	l3.4,2c0.3,0.2,0.7,0.2,1.1,0c0.5-0.3,1.1-0.5,1.7-0.7c0.4-0.1,0.6-0.4,0.7-0.8l1-3.8h2.5l1,3.8c0.1,0.4,0.4,0.7,0.7,0.8
	c0.6,0.2,1.1,0.4,1.7,0.7c0.3,0.2,0.7,0.2,1.1,0l3.4-2L59.8,6l-2,3.4c-0.2,0.3-0.2,0.7,0,1.1c0.3,0.5,0.5,1.1,0.7,1.6
	c0.1,0.4,0.4,0.6,0.8,0.7l3.8,1L63,16.2z"/>
<circle class="st4" cx="49" cy="15" r="4"/>
<path class="st5" d="M26,42c-0.6,0-1,0.4-1,1v2c0,0.6,0.4,1,1,1s1-0.4,1-1v-2C27,42.4,26.6,42,26,42z"/>
<path class="st5" d="M31,41.8c-0.6,0-1,0.4-1,1v2c0,0.6,0.4,1,1,1s1-0.4,1-1v-2C32,42.2,31.6,41.8,31,41.8z"/>
<path class="st5" d="M36,41.1c-0.6,0-1,0.4-1,1v2c0,0.6,0.4,1,1,1s1-0.4,1-1v-2C37,41.5,36.6,41.1,36,41.1z"/>
<path class="st5" d="M41,40c-0.6,0-1,0.4-1,1v2c0,0.6,0.4,1,1,1s1-0.4,1-1v-2C42,40.4,41.6,40,41,40z"/>
<path class="st5" d="M63.2,12.1l-3.8-0.9c-0.1-0.3-0.2-0.5-0.3-0.8l2-3.3c0.2-0.4,0.2-0.9-0.1-1.2L58.2,3c-0.3-0.3-0.8-0.4-1.2-0.1
	l-3.3,2c-0.3-0.1-0.5-0.2-0.8-0.3l-0.9-3.8c-0.1-0.5-0.5-0.8-1-0.8h-3.8c-0.5,0-0.9,0.3-1,0.8l-1,3.8c-0.3,0.1-0.5,0.2-0.8,0.3
	l-3.3-2c-0.4-0.3-0.9-0.2-1.2,0.1l-2.1,2.2C33.8,4.4,29.9,4,26,4C11.4,4,0,8.8,0,15v30c0,6.2,11.4,11,26,11s26-4.8,26-11V28.8
	l0.8-3.4c0.3-0.1,0.5-0.2,0.8-0.3l3.3,2c0.4,0.2,0.9,0.2,1.2-0.1l2.8-2.8c0.3-0.3,0.4-0.8,0.1-1.2l-2-3.4c0.1-0.3,0.2-0.5,0.3-0.8
	l3.8-1c0.5-0.1,0.8-0.5,0.8-1v-3.8C64,12.6,63.7,12.2,63.2,12.1z M26,6c3.7,0,7.3,0.3,10.9,1l2,3.3c-0.1,0.3-0.2,0.5-0.3,0.8
	l-3.8,0.9c-0.5,0.1-0.8,0.5-0.8,1V17c0,0.5,0.3,0.9,0.8,1l3.8,1c0.1,0.3,0.2,0.5,0.3,0.8l-2,3.3c-3.6,0.7-7.2,1-10.9,0.9
	c-14.4,0-24-4.6-24-9S11.6,6,26,6z M2,19.3c3.9,4,13.1,6.7,24,6.7c3.9,0,7.8-0.4,11.6-1.1l2.1,2.1c0.3,0.3,0.8,0.4,1.2,0.1l3.3-2
	c0.3,0.1,0.5,0.2,0.8,0.3l1,3.8c0,0.2,0.1,0.3,0.2,0.4C42.3,32.1,35.1,34,26,34c-14.4,0-24-4.6-24-9V19.3z M50,45c0,4.3-9.6,9-24,9
	S2,49.3,2,45v-5.7c3.2,3.3,10.1,5.8,18.9,6.5h0.1c0.6,0,1-0.4,1-1c0-0.6-0.4-1-1-1C10.2,42.9,2,39.1,2,35v-5.7
	c3.9,4,13.1,6.7,24,6.7c10.3,0,19-2.4,23.2-6H50v5c0,1.7-1.5,3.5-4.3,5c-0.5,0.3-0.7,0.9-0.4,1.4c0.3,0.5,0.9,0.7,1.4,0.4
	c1.2-0.6,2.3-1.5,3.3-2.4V45z M62,16.1L58.4,17c-0.3,0.1-0.6,0.3-0.7,0.7c-0.2,0.5-0.4,1-0.6,1.5c-0.2,0.3-0.2,0.7,0,1l1.9,3.2
	L57.4,25l-3.2-1.9c-0.3-0.2-0.7-0.2-1,0c-0.5,0.3-1,0.5-1.5,0.6c-0.3,0.1-0.6,0.4-0.7,0.7L50.2,28h-2.3L47,24.4
	c-0.1-0.3-0.3-0.6-0.7-0.7c-0.5-0.2-1-0.4-1.5-0.6c-0.3-0.2-0.7-0.2-1,0L40.6,25L39,23.4l1.9-3.1c0.2-0.3,0.2-0.7,0-1
	c-0.3-0.5-0.5-1-0.6-1.5c-0.1-0.3-0.4-0.6-0.7-0.7L36,16.1v-2.3l3.6-0.8c0.3-0.1,0.6-0.3,0.7-0.7c0.2-0.5,0.4-1,0.6-1.5
	c0.2-0.3,0.2-0.7,0-1L39,6.6L40.6,5l3.2,1.9c0.3,0.2,0.7,0.2,1,0c0.5-0.3,1-0.5,1.5-0.6c0.3-0.1,0.6-0.4,0.7-0.7L47.8,2h2.3L51,5.6
	c0.1,0.3,0.3,0.6,0.7,0.7c0.5,0.2,1,0.4,1.5,0.6c0.3,0.2,0.7,0.2,1,0L57.4,5L59,6.6l-1.9,3.2c-0.2,0.3-0.2,0.7,0,1
	c0.3,0.5,0.5,1,0.6,1.5c0.1,0.3,0.4,0.6,0.7,0.7l3.6,0.9L62,16.1z"/>
<path class="st5" d="M49,10c-2.8,0-5,2.2-5,5s2.2,5,5,5s5-2.2,5-5S51.8,10,49,10z M49,18c-1.7,0-3-1.3-3-3s1.3-3,3-3s3,1.3,3,3
	S50.7,18,49,18z"/>
<path class="st5" d="M27.1,10c0.9,0,1.9,0.1,2.8,0.1H30c0.6,0,1-0.4,1-1s-0.4-1-1-1c-1-0.1-2-0.1-2.9-0.1l0,0c-0.6,0-1,0.4-1,1
	S26.6,10,27.1,10L27.1,10z"/>
<path class="st5" d="M14.2,11.3c0.1,0,0.2,0,0.2,0c2.7-0.6,5.5-1,8.3-1.2c0.6,0,1-0.5,1-1c0,0,0-0.1,0-0.1c0-0.5-0.5-1-1-0.9
	c-2.9,0.1-5.8,0.6-8.7,1.2c-0.6,0.1-0.9,0.6-0.9,1.1S13.6,11.4,14.2,11.3z"/>
</svg>
