<?xml version="1.0" encoding="utf-8"?>
<!-- Generator: Adobe Illustrator 23.0.6, SVG Export Plug-In . SVG Version: 6.00 Build 0)  -->
<svg version="1.1" id="Layer_1" xmlns="http://www.w3.org/2000/svg" xmlns:xlink="http://www.w3.org/1999/xlink" x="0px" y="0px"
	 viewBox="0 0 64 64" style="enable-background:new 0 0 64 64;" xml:space="preserve">
<style type="text/css">
	.st0{fill:#CDA1A7;}
	.st1{fill:#FAEFDE;}
	.st2{fill:#FFF7F0;}
	.st3{fill:#681866;}
	.st4{fill:#ED7899;}
	.st5{fill:#72CAAF;}
</style>
<title>Icons8 RSL Colored Part 11</title>
<polygon class="st0" points="63,9 3,9 3,53 27.7,53 29,57 37,57 38.3,53 63,53 "/>
<path class="st1" d="M33,52l-2.3-3H7V7h22c2.2,0,4,1.8,4,4V52z"/>
<path class="st1" d="M33,52l2.3-3H59V7H37c-2.2,0-4,1.8-4,4V52z"/>
<rect x="7" y="7" class="st2" width="5" height="42"/>
<path class="st3" d="M61,8h-1.2c-0.4-1.2-1.6-2-2.8-2H37c-1.6,0-3.1,0.7-4,2c-0.9-1.3-2.4-2-4-2H9C7.7,6,6.6,6.8,6.2,8H5
	c-1.7,0-3,1.3-3,3v40c0,1.7,1.3,3,3,3h21.2c0.6,0,1.1,0.4,1.2,1c0.5,1.8,2.1,3,3.9,3h3.3c1.8,0,3.4-1.2,3.9-3c0.1-0.6,0.6-1,1.2-1
	H61c1.7,0,3-1.3,3-3V11C64,9.3,62.7,8,61,8z M9,8h20c1.7,0,3,1.3,3,3v34c0,0.6,0.4,1,1,1s1-0.4,1-1V11c0-1.7,1.3-3,3-3h20
	c0.6,0,1,0.4,1,1v38c0,0.6-0.4,1-1,1H37c-1.6,0-3.1,0.7-4,2c-0.9-1.3-2.4-2-4-2H9c-0.6,0-1-0.4-1-1V9C8,8.4,8.4,8,9,8z M62,51
	c0,0.6-0.4,1-1,1H39.8c-1.5,0-2.8,1-3.2,2.5c-0.2,0.9-1,1.5-1.9,1.5h-3.3c-0.9,0-1.7-0.6-1.9-1.5C29,53,27.7,52,26.2,52H5
	c-0.6,0-1-0.4-1-1V11c0-0.6,0.4-1,1-1h1v37c0,1.7,1.3,3,3,3h20c1.7,0,3,1.3,3,3c0,0.6,0.4,1,1,1s1-0.4,1-1c0-1.7,1.3-3,3-3h20
	c1.7,0,3-1.3,3-3V10h1c0.6,0,1,0.4,1,1V51z"/>
<path class="st4" d="M27,16h1c0.6,0,1-0.4,1-1s-0.4-1-1-1h-1c-0.6,0-1,0.4-1,1S26.4,16,27,16z"/>
<path class="st4" d="M27,20h1c0.6,0,1-0.4,1-1s-0.4-1-1-1h-1c-0.6,0-1,0.4-1,1S26.4,20,27,20z"/>
<path class="st4" d="M27,26h1c0.6,0,1-0.4,1-1s-0.4-1-1-1h-1c-0.6,0-1,0.4-1,1S26.4,26,27,26z"/>
<path class="st4" d="M27,30h1c0.6,0,1-0.4,1-1s-0.4-1-1-1h-1c-0.6,0-1,0.4-1,1S26.4,30,27,30z"/>
<path class="st4" d="M27,36h1c0.6,0,1-0.4,1-1s-0.4-1-1-1h-1c-0.6,0-1,0.4-1,1S26.4,36,27,36z"/>
<path class="st4" d="M27,40h1c0.6,0,1-0.4,1-1s-0.4-1-1-1h-1c-0.6,0-1,0.4-1,1S26.4,40,27,40z"/>
<path class="st5" d="M23,16h1c0.6,0,1-0.4,1-1s-0.4-1-1-1h-1c-0.6,0-1,0.4-1,1S22.4,16,23,16z"/>
<path class="st5" d="M23,20h1c0.6,0,1-0.4,1-1s-0.4-1-1-1h-1c-0.6,0-1,0.4-1,1S22.4,20,23,20z"/>
<path class="st5" d="M23,30h1c0.6,0,1-0.4,1-1s-0.4-1-1-1h-1c-0.6,0-1,0.4-1,1S22.4,30,23,30z"/>
<path class="st5" d="M23,36h1c0.6,0,1-0.4,1-1s-0.4-1-1-1h-1c-0.6,0-1,0.4-1,1S22.4,36,23,36z"/>
<path class="st3" d="M13,16h4c0.6,0,1-0.4,1-1s-0.4-1-1-1h-4c-0.6,0-1,0.4-1,1S12.4,16,13,16z"/>
<path class="st3" d="M13,20h6c0.6,0,1-0.4,1-1s-0.4-1-1-1h-6c-0.6,0-1,0.4-1,1S12.4,20,13,20z"/>
<path class="st3" d="M13,30h2c0.6,0,1-0.4,1-1s-0.4-1-1-1h-2c-0.6,0-1,0.4-1,1S12.4,30,13,30z"/>
<path class="st3" d="M13,26h4c0.6,0,1-0.4,1-1s-0.4-1-1-1h-4c-0.6,0-1,0.4-1,1S12.4,26,13,26z"/>
<path class="st3" d="M13,40h2c0.6,0,1-0.4,1-1s-0.4-1-1-1h-2c-0.6,0-1,0.4-1,1S12.4,40,13,40z"/>
<path class="st3" d="M13,36h4c0.6,0,1-0.4,1-1s-0.4-1-1-1h-4c-0.6,0-1,0.4-1,1S12.4,36,13,36z"/>
<path class="st4" d="M53,16h1c0.6,0,1-0.4,1-1s-0.4-1-1-1h-1c-0.6,0-1,0.4-1,1S52.4,16,53,16z"/>
<path class="st4" d="M53,20h1c0.6,0,1-0.4,1-1s-0.4-1-1-1h-1c-0.6,0-1,0.4-1,1S52.4,20,53,20z"/>
<path class="st4" d="M53,26h1c0.6,0,1-0.4,1-1s-0.4-1-1-1h-1c-0.6,0-1,0.4-1,1S52.4,26,53,26z"/>
<path class="st4" d="M53,30h1c0.6,0,1-0.4,1-1s-0.4-1-1-1h-1c-0.6,0-1,0.4-1,1S52.4,30,53,30z"/>
<path class="st5" d="M49,20h1c0.6,0,1-0.4,1-1s-0.4-1-1-1h-1c-0.6,0-1,0.4-1,1S48.4,20,49,20z"/>
<path class="st5" d="M49,26h1c0.6,0,1-0.4,1-1s-0.4-1-1-1h-1c-0.6,0-1,0.4-1,1S48.4,26,49,26z"/>
<path class="st3" d="M39,16h4c0.6,0,1-0.4,1-1s-0.4-1-1-1h-4c-0.6,0-1,0.4-1,1S38.4,16,39,16z"/>
<path class="st3" d="M39,20h6c0.6,0,1-0.4,1-1s-0.4-1-1-1h-6c-0.6,0-1,0.4-1,1S38.4,20,39,20z"/>
<path class="st3" d="M39,30h2c0.6,0,1-0.4,1-1s-0.4-1-1-1h-2c-0.6,0-1,0.4-1,1S38.4,30,39,30z"/>
<path class="st3" d="M39,26h4c0.6,0,1-0.4,1-1s-0.4-1-1-1h-4c-0.6,0-1,0.4-1,1S38.4,26,39,26z"/>
</svg>
