<?xml version="1.0" encoding="utf-8"?>
<!-- Generator: Adobe Illustrator 23.0.6, SVG Export Plug-In . SVG Version: 6.00 Build 0)  -->
<svg version="1.1" id="Layer_1" xmlns="http://www.w3.org/2000/svg" xmlns:xlink="http://www.w3.org/1999/xlink" x="0px" y="0px"
	 viewBox="0 0 64 64" style="enable-background:new 0 0 64 64;" xml:space="preserve">
<style type="text/css">
	.st0{fill:#C2CDE7;}
	.st1{fill:#D3DDED;}
	.st2{fill:#ACB7D0;}
	.st3{fill:#F9DD8F;}
	.st4{fill:#FFF8F8;}
	.st5{fill:#CED8ED;}
	.st6{fill:#8B8E98;}
	.st7{fill:#681A66;}
	.st8{fill:#FAEFDE;}
</style>
<title>Dusk Part 3</title>
<path class="st0" d="M58.8,24.8l-6.7-1.7c-0.3-0.9-0.7-1.7-1.1-2.5l3.5-5.9c0.7-1.1,0.5-2.6-0.4-3.5l-3.3-3.3
	c-0.9-0.9-2.4-1.1-3.5-0.4l-5.9,3.5c-0.8-0.4-1.7-0.8-2.6-1.1l-1.7-6.7C36.8,1.9,35.7,1,34.4,1h-4.7c-1.3,0-2.5,0.9-2.8,2.2
	l-1.7,6.7c-0.9,0.3-1.7,0.7-2.5,1.1l-5.9-3.5c-1.1-0.7-2.6-0.5-3.5,0.4l-3.3,3.3c-0.9,0.9-1.1,2.4-0.4,3.5l3.5,5.9
	c-0.4,0.8-0.8,1.7-1.1,2.6l-6.7,1.7C3.9,25.2,3,26.3,3,27.6v4.7c0,1.3,0.9,2.5,2.2,2.8l6.7,1.7c0.3,0.9,0.7,1.7,1.1,2.5l-3.5,5.9
	c-0.7,1.1-0.5,2.6,0.4,3.5l3.3,3.3c0.9,0.9,2.4,1.1,3.5,0.4l5.9-3.5c0.8,0.4,1.7,0.8,2.6,1.1l1.7,6.7c0.3,1.3,1.5,2.2,2.8,2.2h4.7
	c1.3,0,2.5-0.9,2.8-2.2l1.7-6.7c0.9-0.3,1.7-0.7,2.5-1.1l5.9,3.5c1.1,0.7,2.6,0.5,3.5-0.4l3.3-3.3c0.9-0.9,1.1-2.4,0.4-3.5L51,39.4
	c0.4-0.8,0.8-1.7,1.1-2.6l6.7-1.7c1.3-0.3,2.2-1.5,2.2-2.8v-4.7C61,26.3,60.1,25.2,58.8,24.8z"/>
<path class="st1" d="M52.1,23.2c-0.3-0.9-0.7-1.7-1.1-2.5l3.5-5.9c0.7-1.1,0.5-2.6-0.4-3.5l-0.7-0.7L12.7,51.3
	c0.6,0.6,1.3,1.1,1.9,1.7c0.7,0.1,1.4,0,2.1-0.3l5.9-3.5c0.8,0.4,1.7,0.8,2.6,1.1l0.7,3l29.2-29.2L52.1,23.2z"/>
<path class="st1" d="M51.5,8.5L51,8h-4.7l-0.7,0.4L10.4,43.6l-1,1.7c-0.3,0.5-0.4,1-0.4,1.6c0.5,0.8,1.1,1.6,1.8,2.3L51.5,8.5z"/>
<path class="st1" d="M38.8,9.9l-0.7-3L8.9,36.1l3,0.7c0.1,0.3,0.2,0.6,0.4,0.9l27.5-27.6C39.5,10.1,39.2,10,38.8,9.9z"/>
<circle class="st2" cx="32" cy="30" r="13"/>
<circle class="st3" cx="32" cy="30" r="7"/>
<polygon class="st4" points="32.5,7 33.7,9.3 36,10.5 33.7,11.7 32.5,14 31.3,11.7 29,10.5 31.3,9.3 "/>
<polygon class="st4" points="18.4,40 19.3,41.6 20.8,42.4 19.3,43.3 18.4,44.8 17.6,43.3 16,42.4 17.6,41.6 "/>
<polygon class="st4" points="46.3,17 46.9,18.1 48,18.6 46.9,19.2 46.3,20.3 45.8,19.2 44.7,18.6 45.8,18.1 "/>
<rect x="33" y="35" class="st5" width="30" height="4"/>
<rect x="33" y="39" class="st6" width="30" height="24"/>
<path class="st7" d="M21,31c0.6,0,1-0.4,1-1s-0.4-1-1-1h-2c-0.6,0-1,0.4-1,1s0.4,1,1,1H21z"/>
<path class="st7" d="M23.5,37.1l-1.4,1.4c-0.4,0.4-0.5,1-0.1,1.4c0.4,0.4,1,0.5,1.4,0.1c0,0,0.1-0.1,0.1-0.1l1.4-1.4
	c0.4-0.4,0.3-1.1-0.1-1.4C24.4,36.8,23.9,36.8,23.5,37.1L23.5,37.1z"/>
<path class="st7" d="M23.5,22.9c0.4,0.4,1.1,0.3,1.4-0.1c0.3-0.4,0.3-0.9,0-1.3l-1.4-1.4c-0.4-0.4-1.1-0.3-1.4,0.1
	c-0.3,0.4-0.3,0.9,0,1.3L23.5,22.9z"/>
<path class="st7" d="M22.7,33.8c-0.2-0.5-0.8-0.8-1.3-0.5L19.6,34c-0.5,0.2-0.8,0.7-0.6,1.3c0.2,0.5,0.7,0.8,1.3,0.6
	c0,0,0.1,0,0.1,0l1.9-0.8C22.7,34.8,22.9,34.2,22.7,33.8z"/>
<path class="st7" d="M28.1,39.2c-0.5-0.2-1.1,0-1.3,0.5L26,41.6c-0.2,0.5,0,1.1,0.5,1.3c0.5,0.2,1.1,0,1.3-0.5c0,0,0,0,0-0.1
	l0.8-1.8C28.8,40,28.6,39.4,28.1,39.2z"/>
<path class="st7" d="M19.6,25.8l1.8,0.8c0.5,0.2,1.1,0,1.3-0.5c0.2-0.5,0-1.1-0.5-1.3c0,0,0,0-0.1,0L20.4,24c-0.5-0.2-1.1,0-1.3,0.5
	C18.9,25,19.1,25.6,19.6,25.8C19.6,25.8,19.6,25.8,19.6,25.8z"/>
<path class="st7" d="M29.3,35.4c-3-1.5-4.2-5.1-2.7-8.1c1.5-3,5.1-4.2,8.1-2.7c2,1,3.3,3.1,3.3,5.4c0,0.2,0,0.4,0,0.6
	c-0.1,0.6,0.4,1,0.9,1.1c0.6,0.1,1-0.4,1.1-0.9c0-0.3,0-0.5,0-0.8c0-4.4-3.6-8-8-8c-4.4,0-8,3.6-8,8c0,3,1.7,5.8,4.4,7.1
	c0.5,0.2,1.1,0,1.3-0.4C30,36.2,29.8,35.6,29.3,35.4L29.3,35.4z"/>
<path class="st7" d="M28,18.6c0.1,0,0.2,0,0.3,0c0.7-0.2,1.4-0.4,2.1-0.5c0.6-0.1,0.9-0.6,0.9-1.1s-0.6-0.9-1.1-0.9
	c-0.8,0.1-1.7,0.3-2.5,0.6c-0.6,0.1-0.9,0.6-0.8,1.2C26.9,18.4,27.4,18.8,28,18.6L28,18.6z"/>
<circle class="st7" cx="32" cy="30" r="2"/>
<path class="st8" d="M57,46h-8c-0.6,0-1,0.4-1,1s0.4,1,1,1h8c0.6,0,1-0.4,1-1S57.6,46,57,46z"/>
<path class="st8" d="M53,54h-4c-0.6,0-1,0.4-1,1s0.4,1,1,1h4c0.6,0,1-0.4,1-1S53.6,54,53,54z"/>
<path class="st8" d="M44.3,44.3L41,47.6l-1.3-1.3c-0.4-0.4-1.1-0.3-1.4,0.1c-0.3,0.4-0.3,0.9,0,1.3l2,2c0.4,0.4,1,0.4,1.4,0l4-4
	c0.4-0.4,0.3-1.1-0.1-1.4C45.2,44,44.7,44,44.3,44.3L44.3,44.3z"/>
<path class="st8" d="M44.3,52.3L41,55.6l-1.3-1.3c-0.4-0.4-1.1-0.3-1.4,0.1c-0.3,0.4-0.3,0.9,0,1.3l2,2c0.4,0.4,1,0.4,1.4,0l4-4
	c0.4-0.4,0.3-1.1-0.1-1.4C45.2,52,44.7,52,44.3,52.3L44.3,52.3z"/>
<path class="st7" d="M61.5,34c0.3-0.5,0.5-1,0.5-1.6v-4.9c0-1.4-0.9-2.6-2.3-2.9l-6.9-1.7c-0.3-0.9-0.7-1.8-1.1-2.6l3.7-6.1
	c0.7-1.2,0.5-2.7-0.5-3.7l-3.4-3.5c-1-1-2.5-1.2-3.7-0.4l-6.1,3.7c-0.9-0.4-1.7-0.8-2.7-1.1l-1.7-6.9C37,0.9,35.8,0,34.4,0h-4.9
	c-1.4,0-2.6,0.9-2.9,2.3l-1.7,6.9c-0.9,0.3-1.8,0.7-2.6,1.1l-6.1-3.7c-1.2-0.7-2.7-0.5-3.7,0.4l-3.4,3.5c-1,1-1.2,2.5-0.4,3.7
	l3.7,6.1c-0.4,0.9-0.8,1.7-1.1,2.6l-6.9,1.7C2.9,25,2,26.2,2,27.6v4.9c0,1.4,0.9,2.6,2.3,2.9l6.9,1.7c0.3,0.9,0.7,1.8,1.1,2.6
	l-3.7,6.1c-0.7,1.2-0.5,2.7,0.4,3.7l3.4,3.5c1,1,2.5,1.2,3.7,0.5l6.1-3.7c0.9,0.4,1.7,0.8,2.6,1.1l1.7,6.9c0.3,1.3,1.5,2.3,2.9,2.3
	H32v1c0,1.7,1.3,3,3,3h26c1.7,0,3-1.3,3-3V37C64,35.5,63,34.3,61.5,34z M62,37v1H34v-1c0-0.6,0.4-1,1-1h26C61.6,36,62,36.4,62,37z
	 M29.6,58c-0.5,0-0.9-0.3-1-0.8l-1.7-6.9c-0.2-0.7-0.7-1.2-1.3-1.4c-0.8-0.3-1.6-0.6-2.4-1c-0.6-0.3-1.3-0.3-1.9,0.1l-6.1,3.7
	c-0.4,0.2-0.9,0.2-1.2-0.2l-3.4-3.5c-0.3-0.3-0.4-0.8-0.1-1.2l3.7-6.1c0.3-0.6,0.4-1.3,0.1-1.9c-0.4-0.8-0.7-1.6-1-2.4
	c-0.2-0.6-0.7-1.1-1.4-1.3l-6.9-1.7c-0.5-0.1-0.8-0.5-0.8-1v-4.9c0-0.5,0.3-0.9,0.8-1l6.9-1.7c0.7-0.2,1.2-0.7,1.4-1.3
	c0.3-0.8,0.6-1.6,1-2.4c0.3-0.6,0.3-1.3-0.1-1.9l-3.7-6.1c-0.2-0.4-0.2-0.9,0.1-1.2l3.4-3.4c0.3-0.3,0.8-0.4,1.2-0.1l6.1,3.7
	c0.6,0.3,1.3,0.4,1.9,0.1c0.8-0.4,1.6-0.7,2.4-1c0.6-0.2,1.1-0.7,1.3-1.4l1.7-6.9c0.1-0.5,0.5-0.8,1-0.8h4.9c0.5,0,0.9,0.3,1,0.8
	l1.7,6.9c0.2,0.7,0.7,1.2,1.3,1.4c0.8,0.3,1.6,0.6,2.4,1c0.6,0.3,1.3,0.3,1.9-0.1l6.1-3.7c0.4-0.2,0.9-0.2,1.2,0.1l3.5,3.4
	c0.3,0.3,0.4,0.8,0.2,1.2L50,19.2c-0.3,0.6-0.4,1.3-0.1,1.9c0.4,0.8,0.7,1.6,1,2.4c0.2,0.6,0.7,1.1,1.4,1.3l6.9,1.7
	c0.5,0.1,0.8,0.5,0.8,1v4.9c0,0.5-0.3,0.9-0.8,1L57,34h-0.1H45.4c2.2-7.4-2-15.2-9.4-17.4c-0.2-0.1-0.4-0.1-0.7-0.2
	c-0.5-0.1-1.1,0.2-1.2,0.8c-0.1,0.5,0.2,1,0.7,1.2c6.4,1.6,10.4,8.1,8.8,14.5c-0.1,0.4-0.2,0.8-0.3,1.1H35c-1.7,0-3,1.3-3,3v21H29.6
	z M61,62H35c-0.6,0-1-0.4-1-1V40h28v21C62,61.6,61.6,62,61,62z"/>
</svg>
